<mxfile host="app.diagrams.net" agent="Mozilla/5.0 (Windows NT 10.0; Win64; x64; rv:139.0) Gecko/20100101 Firefox/139.0" version="27.1.6" pages="2">
  <diagram name="Page-1" id="kZbkJSmVtyUM7UVVc8-C">
    <mxGraphModel dx="3226" dy="2111" grid="1" gridSize="10" guides="1" tooltips="1" connect="1" arrows="1" fold="1" page="1" pageScale="1" pageWidth="1654" pageHeight="1169" math="0" shadow="0">
      <root>
        <mxCell id="0" />
        <mxCell id="1" parent="0" />
        <mxCell id="WEB-YRFAWU7NIcEx4cvq-3" style="edgeStyle=orthogonalEdgeStyle;rounded=0;orthogonalLoop=1;jettySize=auto;html=1;exitX=1;exitY=0.5;exitDx=0;exitDy=0;entryX=0;entryY=0.5;entryDx=0;entryDy=0;" parent="1" source="WEB-YRFAWU7NIcEx4cvq-1" target="WEB-YRFAWU7NIcEx4cvq-2" edge="1">
          <mxGeometry relative="1" as="geometry" />
        </mxCell>
        <mxCell id="WEB-YRFAWU7NIcEx4cvq-1" value="data&#xa;RawÂ &#xa;Next-Generation&#xa;Genomic Data" style="rectangle;fillColor=#fff2cc;strokeColor=#d6b656;" parent="1" name="data" vertex="1">
          <mxGeometry x="-1532" y="-1065" width="100" height="50" as="geometry" />
        </mxCell>
        <mxCell id="-Ie7jToLpXOAUQVlz_J3-11" style="edgeStyle=orthogonalEdgeStyle;rounded=0;orthogonalLoop=1;jettySize=auto;html=1;exitX=1;exitY=0.5;exitDx=0;exitDy=0;entryX=0.25;entryY=0;entryDx=0;entryDy=0;" parent="1" source="WEB-YRFAWU7NIcEx4cvq-2" target="WEB-YRFAWU7NIcEx4cvq-4" edge="1">
          <mxGeometry relative="1" as="geometry" />
        </mxCell>
        <mxCell id="WEB-YRFAWU7NIcEx4cvq-2" value="transform" style="rounded=1;whiteSpace=wrap;html=1;arcSize=50;fillColor=#f8cecc;strokeColor=#b85450;" parent="1" name="transform" vertex="1">
          <mxGeometry x="-1350" y="-1065" width="100" height="50" as="geometry" />
        </mxCell>
        <mxCell id="-Ie7jToLpXOAUQVlz_J3-8" style="edgeStyle=orthogonalEdgeStyle;rounded=0;orthogonalLoop=1;jettySize=auto;html=1;exitX=0.5;exitY=1;exitDx=0;exitDy=0;entryX=0.5;entryY=0;entryDx=0;entryDy=0;" parent="1" source="WEB-YRFAWU7NIcEx4cvq-4" target="WEB-YRFAWU7NIcEx4cvq-14" edge="1">
          <mxGeometry relative="1" as="geometry" />
        </mxCell>
        <mxCell id="-Ie7jToLpXOAUQVlz_J3-15" style="edgeStyle=orthogonalEdgeStyle;rounded=0;orthogonalLoop=1;jettySize=auto;html=1;exitX=0.75;exitY=0;exitDx=0;exitDy=0;entryX=0;entryY=0.5;entryDx=0;entryDy=0;" parent="1" source="WEB-YRFAWU7NIcEx4cvq-4" target="WEB-YRFAWU7NIcEx4cvq-6" edge="1">
          <mxGeometry relative="1" as="geometry" />
        </mxCell>
        <mxCell id="WEB-YRFAWU7NIcEx4cvq-4" value="data&#xa;Cleaned Data" style="rectangle;fillColor=#fff2cc;strokeColor=#d6b656;" parent="1" name="data" vertex="1">
          <mxGeometry x="-1222" y="-935" width="100" height="50" as="geometry" />
        </mxCell>
        <mxCell id="WEB-YRFAWU7NIcEx4cvq-6" value="infer:deduce" style="rounded=1;whiteSpace=wrap;html=1;arcSize=50;fillColor=#bac8d3;strokeColor=#23445d;" parent="1" name="infer:deduce" vertex="1">
          <mxGeometry x="-1002" y="-1065" width="100" height="50" as="geometry" />
        </mxCell>
        <mxCell id="WEB-YRFAWU7NIcEx4cvq-10" style="edgeStyle=orthogonalEdgeStyle;rounded=0;orthogonalLoop=1;jettySize=auto;html=1;exitX=0;exitY=0.5;exitDx=0;exitDy=0;entryX=1;entryY=0.5;entryDx=0;entryDy=0;" parent="1" source="WEB-YRFAWU7NIcEx4cvq-9" target="WEB-YRFAWU7NIcEx4cvq-6" edge="1">
          <mxGeometry relative="1" as="geometry" />
        </mxCell>
        <mxCell id="WEB-YRFAWU7NIcEx4cvq-9" value="model:statistical&#xa;CoxPH" style="shape=hexagon;perimeter=hexagonPerimeter2;fillColor=#b0e3e6;strokeColor=#0e8088;" parent="1" name="model" vertex="1">
          <mxGeometry x="-822" y="-1065" width="120" height="50" as="geometry" />
        </mxCell>
        <mxCell id="WEB-YRFAWU7NIcEx4cvq-19" style="edgeStyle=orthogonalEdgeStyle;rounded=0;orthogonalLoop=1;jettySize=auto;html=1;exitX=0.5;exitY=1;exitDx=0;exitDy=0;entryX=0.5;entryY=0;entryDx=0;entryDy=0;" parent="1" source="WEB-YRFAWU7NIcEx4cvq-11" target="WEB-YRFAWU7NIcEx4cvq-18" edge="1">
          <mxGeometry relative="1" as="geometry" />
        </mxCell>
        <mxCell id="WEB-YRFAWU7NIcEx4cvq-11" value="data:numeric&#xa;HR-Values" style="rectangle;fillColor=#fff2cc;strokeColor=#d6b656;" parent="1" name="data" vertex="1">
          <mxGeometry x="-1002" y="-935" width="100" height="50" as="geometry" />
        </mxCell>
        <mxCell id="WEB-YRFAWU7NIcEx4cvq-13" value="&lt;div&gt;error&lt;/div&gt;&lt;div&gt;|&lt;/div&gt;&lt;div&gt;|&lt;/div&gt;&lt;div&gt;v&lt;/div&gt;" style="text;html=1;align=center;verticalAlign=middle;whiteSpace=wrap;rounded=0;dashed=1;fillColor=#f8cecc;strokeColor=#b85450;strokeWidth=2;" parent="1" name="text" vertex="1">
          <mxGeometry x="-969.5" y="-1015" width="35" height="80" as="geometry" />
        </mxCell>
        <mxCell id="-Ie7jToLpXOAUQVlz_J3-13" style="edgeStyle=orthogonalEdgeStyle;rounded=0;orthogonalLoop=1;jettySize=auto;html=1;exitX=0.5;exitY=1;exitDx=0;exitDy=0;entryX=0.5;entryY=0;entryDx=0;entryDy=0;" parent="1" source="WEB-YRFAWU7NIcEx4cvq-14" target="WEB-YRFAWU7NIcEx4cvq-16" edge="1">
          <mxGeometry relative="1" as="geometry" />
        </mxCell>
        <mxCell id="WEB-YRFAWU7NIcEx4cvq-14" value="generate:train" style="rounded=1;whiteSpace=wrap;html=1;arcSize=50;fillColor=#e1d5e7;strokeColor=#9673a6;" parent="1" name="generate:train" vertex="1">
          <mxGeometry x="-1222" y="-805" width="100" height="50" as="geometry" />
        </mxCell>
        <mxCell id="WEB-YRFAWU7NIcEx4cvq-16" value="model:ML&#xa;Abstracted&#xa;Weights" style="shape=hexagon;perimeter=hexagonPerimeter2;fillColor=#b0e3e6;strokeColor=#0e8088;" parent="1" name="model" vertex="1">
          <mxGeometry x="-1232" y="-675" width="120" height="50" as="geometry" />
        </mxCell>
        <mxCell id="-Ie7jToLpXOAUQVlz_J3-17" style="edgeStyle=orthogonalEdgeStyle;rounded=0;orthogonalLoop=1;jettySize=auto;html=1;exitX=0.5;exitY=1;exitDx=0;exitDy=0;entryX=0.5;entryY=0;entryDx=0;entryDy=0;" parent="1" source="WEB-YRFAWU7NIcEx4cvq-18" target="WEB-YRFAWU7NIcEx4cvq-23" edge="1">
          <mxGeometry relative="1" as="geometry" />
        </mxCell>
        <mxCell id="WEB-YRFAWU7NIcEx4cvq-18" value="generate:train" style="rounded=1;whiteSpace=wrap;html=1;arcSize=50;fillColor=#e1d5e7;strokeColor=#9673a6;" parent="1" name="generate:train" vertex="1">
          <mxGeometry x="-1002" y="-675" width="100" height="50" as="geometry" />
        </mxCell>
        <mxCell id="WEB-YRFAWU7NIcEx4cvq-21" value="&lt;div&gt;error&lt;/div&gt;&lt;div&gt;--&amp;gt;&lt;/div&gt;" style="text;html=1;align=center;verticalAlign=middle;whiteSpace=wrap;rounded=0;dashed=1;fillColor=#f8cecc;strokeColor=#b85450;strokeWidth=2;" parent="1" name="text" vertex="1">
          <mxGeometry x="-1122" y="-665" width="120" height="30" as="geometry" />
        </mxCell>
        <mxCell id="WEB-YRFAWU7NIcEx4cvq-22" value="model:ML&#xa;DL-based" style="shape=hexagon;perimeter=hexagonPerimeter2;fillColor=#b0e3e6;strokeColor=#0e8088;" parent="1" name="model" vertex="1">
          <mxGeometry x="-712" y="-545" width="120" height="50" as="geometry" />
        </mxCell>
        <mxCell id="WEB-YRFAWU7NIcEx4cvq-30" style="edgeStyle=orthogonalEdgeStyle;rounded=0;orthogonalLoop=1;jettySize=auto;html=1;exitX=0.5;exitY=1;exitDx=0;exitDy=0;entryX=0.5;entryY=0;entryDx=0;entryDy=0;" parent="1" source="WEB-YRFAWU7NIcEx4cvq-23" target="WEB-YRFAWU7NIcEx4cvq-29" edge="1">
          <mxGeometry relative="1" as="geometry" />
        </mxCell>
        <mxCell id="WEB-YRFAWU7NIcEx4cvq-23" value="model:statistical&#xa;Multiplication&#xa;model-based" style="shape=hexagon;perimeter=hexagonPerimeter2;fillColor=#b0e3e6;strokeColor=#0e8088;" parent="1" name="model" vertex="1">
          <mxGeometry x="-1312" y="-545" width="120" height="50" as="geometry" />
        </mxCell>
        <mxCell id="WEB-YRFAWU7NIcEx4cvq-24" value="model:statistical&#xa;CoxPH&#xa;HR-based" style="shape=hexagon;perimeter=hexagonPerimeter2;fillColor=#b0e3e6;strokeColor=#0e8088;" parent="1" name="model" vertex="1">
          <mxGeometry x="-1112" y="-545" width="120" height="50" as="geometry" />
        </mxCell>
        <mxCell id="WEB-YRFAWU7NIcEx4cvq-25" value="model:statistical&#xa;Addition&#xa;model-based" style="shape=hexagon;perimeter=hexagonPerimeter2;fillColor=#b0e3e6;strokeColor=#0e8088;" parent="1" name="model" vertex="1">
          <mxGeometry x="-912" y="-545" width="120" height="50" as="geometry" />
        </mxCell>
        <mxCell id="WEB-YRFAWU7NIcEx4cvq-28" value="&lt;div&gt;error&lt;/div&gt;&lt;div&gt;|&lt;/div&gt;&lt;div&gt;v&lt;/div&gt;" style="text;html=1;align=center;verticalAlign=middle;whiteSpace=wrap;rounded=0;dashed=1;fillColor=#f8cecc;strokeColor=#b85450;strokeWidth=2;" parent="1" name="text" vertex="1">
          <mxGeometry x="-1052" y="-585" width="400" height="40" as="geometry" />
        </mxCell>
        <mxCell id="WEB-YRFAWU7NIcEx4cvq-29" value="infer:deduce" style="rounded=1;whiteSpace=wrap;html=1;arcSize=50;fillColor=#bac8d3;strokeColor=#23445d;" parent="1" name="infer:deduce" vertex="1">
          <mxGeometry x="-1002" y="-415" width="100" height="50" as="geometry" />
        </mxCell>
        <mxCell id="WEB-YRFAWU7NIcEx4cvq-31" value="&lt;div&gt;error&lt;/div&gt;&lt;div&gt;|&lt;/div&gt;&lt;div&gt;v&lt;/div&gt;" style="text;html=1;align=center;verticalAlign=middle;whiteSpace=wrap;rounded=0;dashed=1;fillColor=#f8cecc;strokeColor=#b85450;strokeWidth=2;" parent="1" name="text" vertex="1">
          <mxGeometry x="-1052" y="-495" width="400" height="40" as="geometry" />
        </mxCell>
        <mxCell id="WEB-YRFAWU7NIcEx4cvq-33" style="edgeStyle=orthogonalEdgeStyle;rounded=0;orthogonalLoop=1;jettySize=auto;html=1;entryX=0;entryY=0.5;entryDx=0;entryDy=0;" parent="1" source="WEB-YRFAWU7NIcEx4cvq-32" target="WEB-YRFAWU7NIcEx4cvq-29" edge="1">
          <mxGeometry relative="1" as="geometry" />
        </mxCell>
        <mxCell id="WEB-YRFAWU7NIcEx4cvq-32" value="data&#xa;Patient&#39;s Genomic&#xa;Data" style="rectangle;fillColor=#fff2cc;strokeColor=#d6b656;" parent="1" name="data" vertex="1">
          <mxGeometry x="-1412" y="-415" width="100" height="50" as="geometry" />
        </mxCell>
        <mxCell id="WEB-YRFAWU7NIcEx4cvq-34" value="model:semantic&#xa;Fuzzy Rules" style="shape=hexagon;perimeter=hexagonPerimeter2;fillColor=#b0e3e6;strokeColor=#0e8088;" parent="1" name="model" vertex="1">
          <mxGeometry x="-592" y="-415" width="120" height="50" as="geometry" />
        </mxCell>
        <mxCell id="WEB-YRFAWU7NIcEx4cvq-36" value="&lt;div&gt;error&lt;/div&gt;&lt;div&gt;&amp;lt;--&lt;/div&gt;" style="text;html=1;align=center;verticalAlign=middle;whiteSpace=wrap;rounded=0;dashed=1;fillColor=#f8cecc;strokeColor=#b85450;strokeWidth=2;" parent="1" name="text" vertex="1">
          <mxGeometry x="-902" y="-405" width="310" height="30" as="geometry" />
        </mxCell>
        <mxCell id="WEB-YRFAWU7NIcEx4cvq-38" value="" style="edgeStyle=orthogonalEdgeStyle;rounded=0;orthogonalLoop=1;jettySize=auto;html=1;" parent="1" source="WEB-YRFAWU7NIcEx4cvq-37" target="WEB-YRFAWU7NIcEx4cvq-34" edge="1">
          <mxGeometry relative="1" as="geometry" />
        </mxCell>
        <mxCell id="WEB-YRFAWU7NIcEx4cvq-37" value="generate:engineer" style="rounded=1;whiteSpace=wrap;html=1;arcSize=50;fillColor=#e1d5e7;strokeColor=#9673a6;" parent="1" name="generate:engineer" vertex="1">
          <mxGeometry x="-402" y="-415" width="100" height="50" as="geometry" />
        </mxCell>
        <mxCell id="WEB-YRFAWU7NIcEx4cvq-40" style="edgeStyle=orthogonalEdgeStyle;rounded=0;orthogonalLoop=1;jettySize=auto;html=1;exitX=0;exitY=0.5;exitDx=0;exitDy=0;entryX=1;entryY=0.5;entryDx=0;entryDy=0;" parent="1" source="WEB-YRFAWU7NIcEx4cvq-39" target="WEB-YRFAWU7NIcEx4cvq-37" edge="1">
          <mxGeometry relative="1" as="geometry" />
        </mxCell>
        <mxCell id="WEB-YRFAWU7NIcEx4cvq-39" value="actor&#xa;Experts" style="triangle;fillColor=#ffe6cc;strokeColor=#d79b00;" parent="1" name="actor" vertex="1">
          <mxGeometry x="-222" y="-415" width="100" height="50" as="geometry" />
        </mxCell>
        <mxCell id="-Ie7jToLpXOAUQVlz_J3-23" style="edgeStyle=orthogonalEdgeStyle;rounded=0;orthogonalLoop=1;jettySize=auto;html=1;exitX=0.5;exitY=1;exitDx=0;exitDy=0;entryX=0.5;entryY=0;entryDx=0;entryDy=0;" parent="1" source="WEB-YRFAWU7NIcEx4cvq-41" target="WEB-YRFAWU7NIcEx4cvq-44" edge="1">
          <mxGeometry relative="1" as="geometry" />
        </mxCell>
        <mxCell id="WEB-YRFAWU7NIcEx4cvq-41" value="data&#xa;Risk-scores" style="rectangle;fillColor=#fff2cc;strokeColor=#d6b656;" parent="1" name="data" vertex="1" tooltip="â ï¸ Node not part of any valid pattern.">
          <mxGeometry x="-1002" y="-285" width="100" height="50" as="geometry" />
        </mxCell>
        <mxCell id="WEB-YRFAWU7NIcEx4cvq-43" value="&lt;div&gt;error&lt;/div&gt;&lt;div&gt;|&lt;/div&gt;&lt;div&gt;|&lt;/div&gt;&lt;div&gt;v&lt;/div&gt;" style="text;html=1;align=center;verticalAlign=middle;whiteSpace=wrap;rounded=0;dashed=1;fillColor=#f8cecc;strokeColor=#b85450;strokeWidth=2;" parent="1" name="text" vertex="1">
          <mxGeometry x="-967" y="-365" width="30" height="80" as="geometry" />
        </mxCell>
        <mxCell id="WEB-YRFAWU7NIcEx4cvq-47" style="edgeStyle=orthogonalEdgeStyle;rounded=0;orthogonalLoop=1;jettySize=auto;html=1;exitX=1;exitY=0.5;exitDx=0;exitDy=0;entryX=0;entryY=0.5;entryDx=0;entryDy=0;" parent="1" source="WEB-YRFAWU7NIcEx4cvq-44" target="WEB-YRFAWU7NIcEx4cvq-46" edge="1">
          <mxGeometry relative="1" as="geometry" />
        </mxCell>
        <mxCell id="WEB-YRFAWU7NIcEx4cvq-44" value="transform" style="rounded=1;whiteSpace=wrap;html=1;arcSize=50;fillColor=#f8cecc;strokeColor=#b85450;" parent="1" name="transform" vertex="1" tooltip="â ï¸ Node not part of any valid pattern.">
          <mxGeometry x="-1002" y="-155" width="100" height="50" as="geometry" />
        </mxCell>
        <mxCell id="WEB-YRFAWU7NIcEx4cvq-46" value="symbol&#xa;Clinical&#xa;Implications" style="rectangle;fillColor=#dae8fc;strokeColor=#6c8ebf;" parent="1" name="symbol" vertex="1" tooltip="â ï¸ Node not part of any valid pattern.">
          <mxGeometry x="-822" y="-155" width="100" height="50" as="geometry" />
        </mxCell>
        <mxCell id="WEB-YRFAWU7NIcEx4cvq-48" value="error" style="text;html=1;align=center;verticalAlign=middle;whiteSpace=wrap;rounded=0;dashed=1;fillColor=#f8cecc;strokeColor=#b85450;strokeWidth=2;" parent="1" name="text" vertex="1">
          <mxGeometry x="-887" y="-181.5" width="40" height="30" as="geometry" />
        </mxCell>
      </root>
    </mxGraphModel>
  </diagram>
  <diagram name="Copy of Page-1" id="PW_Z6-m8eqdFcMTlWJXW">
    <mxGraphModel dx="3226" dy="2111" grid="1" gridSize="10" guides="1" tooltips="1" connect="1" arrows="1" fold="1" page="1" pageScale="1" pageWidth="1654" pageHeight="1169" math="0" shadow="0">
      <root>
        <mxCell id="mg9UBordUKbP0jXNHdFR-0" />
        <mxCell id="mg9UBordUKbP0jXNHdFR-1" parent="mg9UBordUKbP0jXNHdFR-0" />
        <mxCell id="mg9UBordUKbP0jXNHdFR-2" style="edgeStyle=orthogonalEdgeStyle;rounded=0;orthogonalLoop=1;jettySize=auto;html=1;exitX=1;exitY=0.5;exitDx=0;exitDy=0;entryX=0;entryY=0.5;entryDx=0;entryDy=0;" edge="1" parent="mg9UBordUKbP0jXNHdFR-1" source="mg9UBordUKbP0jXNHdFR-3" target="mg9UBordUKbP0jXNHdFR-5">
          <mxGeometry relative="1" as="geometry" />
        </mxCell>
        <mxCell id="mg9UBordUKbP0jXNHdFR-3" value="data&#xa;RawÂ &#xa;Next-Generation&#xa;Genomic Data" style="rectangle;fillColor=#fff2cc;strokeColor=#d6b656;" name="data" vertex="1" parent="mg9UBordUKbP0jXNHdFR-1">
          <mxGeometry x="-1532" y="-1065" width="100" height="50" as="geometry" />
        </mxCell>
        <mxCell id="mg9UBordUKbP0jXNHdFR-4" style="edgeStyle=orthogonalEdgeStyle;rounded=0;orthogonalLoop=1;jettySize=auto;html=1;exitX=1;exitY=0.5;exitDx=0;exitDy=0;entryX=0.25;entryY=0;entryDx=0;entryDy=0;" edge="1" parent="mg9UBordUKbP0jXNHdFR-1" source="mg9UBordUKbP0jXNHdFR-5" target="mg9UBordUKbP0jXNHdFR-8">
          <mxGeometry relative="1" as="geometry" />
        </mxCell>
        <mxCell id="mg9UBordUKbP0jXNHdFR-5" value="transform" style="rounded=1;whiteSpace=wrap;html=1;arcSize=50;fillColor=#f8cecc;strokeColor=#b85450;" name="transform" vertex="1" parent="mg9UBordUKbP0jXNHdFR-1">
          <mxGeometry x="-1350" y="-1065" width="100" height="50" as="geometry" />
        </mxCell>
        <mxCell id="mg9UBordUKbP0jXNHdFR-6" style="edgeStyle=orthogonalEdgeStyle;rounded=0;orthogonalLoop=1;jettySize=auto;html=1;exitX=0.5;exitY=1;exitDx=0;exitDy=0;entryX=0.5;entryY=0;entryDx=0;entryDy=0;" edge="1" parent="mg9UBordUKbP0jXNHdFR-1" source="mg9UBordUKbP0jXNHdFR-8" target="mg9UBordUKbP0jXNHdFR-16">
          <mxGeometry relative="1" as="geometry" />
        </mxCell>
        <mxCell id="mg9UBordUKbP0jXNHdFR-7" style="edgeStyle=orthogonalEdgeStyle;rounded=0;orthogonalLoop=1;jettySize=auto;html=1;exitX=0.75;exitY=0;exitDx=0;exitDy=0;entryX=0;entryY=0.5;entryDx=0;entryDy=0;" edge="1" parent="mg9UBordUKbP0jXNHdFR-1" source="mg9UBordUKbP0jXNHdFR-8" target="mg9UBordUKbP0jXNHdFR-9">
          <mxGeometry relative="1" as="geometry" />
        </mxCell>
        <mxCell id="mg9UBordUKbP0jXNHdFR-8" value="data&#xa;Cleaned Data" style="rectangle;fillColor=#fff2cc;strokeColor=#d6b656;" name="data" vertex="1" parent="mg9UBordUKbP0jXNHdFR-1">
          <mxGeometry x="-1222" y="-935" width="100" height="50" as="geometry" />
        </mxCell>
        <mxCell id="fisCLAnOKEw6U1uOdIOh-0" style="edgeStyle=orthogonalEdgeStyle;rounded=0;orthogonalLoop=1;jettySize=auto;html=1;exitX=0.5;exitY=1;exitDx=0;exitDy=0;entryX=0.5;entryY=0;entryDx=0;entryDy=0;" edge="1" parent="mg9UBordUKbP0jXNHdFR-1" source="mg9UBordUKbP0jXNHdFR-9" target="mg9UBordUKbP0jXNHdFR-13">
          <mxGeometry relative="1" as="geometry" />
        </mxCell>
        <mxCell id="mg9UBordUKbP0jXNHdFR-9" value="infer:deduce" style="rounded=1;whiteSpace=wrap;html=1;arcSize=50;fillColor=#bac8d3;strokeColor=#23445d;" name="infer:deduce" vertex="1" parent="mg9UBordUKbP0jXNHdFR-1">
          <mxGeometry x="-1002" y="-1065" width="100" height="50" as="geometry" />
        </mxCell>
        <mxCell id="mg9UBordUKbP0jXNHdFR-10" style="edgeStyle=orthogonalEdgeStyle;rounded=0;orthogonalLoop=1;jettySize=auto;html=1;exitX=0;exitY=0.5;exitDx=0;exitDy=0;entryX=1;entryY=0.5;entryDx=0;entryDy=0;" edge="1" parent="mg9UBordUKbP0jXNHdFR-1" source="mg9UBordUKbP0jXNHdFR-11" target="mg9UBordUKbP0jXNHdFR-9">
          <mxGeometry relative="1" as="geometry" />
        </mxCell>
        <mxCell id="mg9UBordUKbP0jXNHdFR-11" value="model:statistical&#xa;CoxPH" style="shape=hexagon;perimeter=hexagonPerimeter2;fillColor=#b0e3e6;strokeColor=#0e8088;" name="model" vertex="1" parent="mg9UBordUKbP0jXNHdFR-1">
          <mxGeometry x="-822" y="-1065" width="120" height="50" as="geometry" />
        </mxCell>
        <mxCell id="mg9UBordUKbP0jXNHdFR-12" style="edgeStyle=orthogonalEdgeStyle;rounded=0;orthogonalLoop=1;jettySize=auto;html=1;exitX=0.5;exitY=1;exitDx=0;exitDy=0;entryX=0.5;entryY=0;entryDx=0;entryDy=0;" edge="1" parent="mg9UBordUKbP0jXNHdFR-1" source="mg9UBordUKbP0jXNHdFR-13" target="mg9UBordUKbP0jXNHdFR-19">
          <mxGeometry relative="1" as="geometry" />
        </mxCell>
        <mxCell id="mg9UBordUKbP0jXNHdFR-13" value="data:numeric&#xa;HR-Values" style="rectangle;fillColor=#fff2cc;strokeColor=#d6b656;" name="data" vertex="1" parent="mg9UBordUKbP0jXNHdFR-1">
          <mxGeometry x="-1002" y="-935" width="100" height="50" as="geometry" />
        </mxCell>
        <mxCell id="mg9UBordUKbP0jXNHdFR-15" style="edgeStyle=orthogonalEdgeStyle;rounded=0;orthogonalLoop=1;jettySize=auto;html=1;exitX=0.5;exitY=1;exitDx=0;exitDy=0;entryX=0.5;entryY=0;entryDx=0;entryDy=0;" edge="1" parent="mg9UBordUKbP0jXNHdFR-1" source="mg9UBordUKbP0jXNHdFR-16" target="mg9UBordUKbP0jXNHdFR-17">
          <mxGeometry relative="1" as="geometry" />
        </mxCell>
        <mxCell id="mg9UBordUKbP0jXNHdFR-16" value="generate:train" style="rounded=1;whiteSpace=wrap;html=1;arcSize=50;fillColor=#e1d5e7;strokeColor=#9673a6;" name="generate:train" vertex="1" parent="mg9UBordUKbP0jXNHdFR-1">
          <mxGeometry x="-1222" y="-805" width="100" height="50" as="geometry" />
        </mxCell>
        <mxCell id="fisCLAnOKEw6U1uOdIOh-1" style="edgeStyle=orthogonalEdgeStyle;rounded=0;orthogonalLoop=1;jettySize=auto;html=1;exitX=1;exitY=0.5;exitDx=0;exitDy=0;entryX=0;entryY=0.5;entryDx=0;entryDy=0;" edge="1" parent="mg9UBordUKbP0jXNHdFR-1" source="mg9UBordUKbP0jXNHdFR-17" target="mg9UBordUKbP0jXNHdFR-19">
          <mxGeometry relative="1" as="geometry" />
        </mxCell>
        <mxCell id="mg9UBordUKbP0jXNHdFR-17" value="model:ML&#xa;Abstracted&#xa;Weights" style="shape=hexagon;perimeter=hexagonPerimeter2;fillColor=#b0e3e6;strokeColor=#0e8088;" name="model" vertex="1" parent="mg9UBordUKbP0jXNHdFR-1">
          <mxGeometry x="-1232" y="-675" width="120" height="50" as="geometry" />
        </mxCell>
        <mxCell id="mg9UBordUKbP0jXNHdFR-18" style="edgeStyle=orthogonalEdgeStyle;rounded=0;orthogonalLoop=1;jettySize=auto;html=1;exitX=0.5;exitY=1;exitDx=0;exitDy=0;entryX=0.5;entryY=0;entryDx=0;entryDy=0;" edge="1" parent="mg9UBordUKbP0jXNHdFR-1" source="mg9UBordUKbP0jXNHdFR-19" target="mg9UBordUKbP0jXNHdFR-23">
          <mxGeometry relative="1" as="geometry" />
        </mxCell>
        <mxCell id="fisCLAnOKEw6U1uOdIOh-2" style="edgeStyle=orthogonalEdgeStyle;rounded=0;orthogonalLoop=1;jettySize=auto;html=1;exitX=0.5;exitY=1;exitDx=0;exitDy=0;entryX=0.5;entryY=0;entryDx=0;entryDy=0;" edge="1" parent="mg9UBordUKbP0jXNHdFR-1" source="mg9UBordUKbP0jXNHdFR-19" target="mg9UBordUKbP0jXNHdFR-24">
          <mxGeometry relative="1" as="geometry" />
        </mxCell>
        <mxCell id="fisCLAnOKEw6U1uOdIOh-3" style="edgeStyle=orthogonalEdgeStyle;rounded=0;orthogonalLoop=1;jettySize=auto;html=1;exitX=0.5;exitY=1;exitDx=0;exitDy=0;entryX=0.5;entryY=0;entryDx=0;entryDy=0;" edge="1" parent="mg9UBordUKbP0jXNHdFR-1" source="mg9UBordUKbP0jXNHdFR-19" target="mg9UBordUKbP0jXNHdFR-25">
          <mxGeometry relative="1" as="geometry" />
        </mxCell>
        <mxCell id="fisCLAnOKEw6U1uOdIOh-4" style="edgeStyle=orthogonalEdgeStyle;rounded=0;orthogonalLoop=1;jettySize=auto;html=1;exitX=0.5;exitY=1;exitDx=0;exitDy=0;entryX=0.5;entryY=0;entryDx=0;entryDy=0;" edge="1" parent="mg9UBordUKbP0jXNHdFR-1" source="mg9UBordUKbP0jXNHdFR-19" target="mg9UBordUKbP0jXNHdFR-21">
          <mxGeometry relative="1" as="geometry" />
        </mxCell>
        <mxCell id="mg9UBordUKbP0jXNHdFR-19" value="generate:train" style="rounded=1;whiteSpace=wrap;html=1;arcSize=50;fillColor=#e1d5e7;strokeColor=#9673a6;" name="generate:train" vertex="1" parent="mg9UBordUKbP0jXNHdFR-1">
          <mxGeometry x="-1002" y="-675" width="100" height="50" as="geometry" />
        </mxCell>
        <mxCell id="fisCLAnOKEw6U1uOdIOh-7" style="edgeStyle=orthogonalEdgeStyle;rounded=0;orthogonalLoop=1;jettySize=auto;html=1;exitX=0.5;exitY=1;exitDx=0;exitDy=0;entryX=0.5;entryY=0;entryDx=0;entryDy=0;" edge="1" parent="mg9UBordUKbP0jXNHdFR-1" source="mg9UBordUKbP0jXNHdFR-21" target="mg9UBordUKbP0jXNHdFR-27">
          <mxGeometry relative="1" as="geometry" />
        </mxCell>
        <mxCell id="mg9UBordUKbP0jXNHdFR-21" value="model:ML&#xa;DL-based" style="shape=hexagon;perimeter=hexagonPerimeter2;fillColor=#b0e3e6;strokeColor=#0e8088;" name="model" vertex="1" parent="mg9UBordUKbP0jXNHdFR-1">
          <mxGeometry x="-712" y="-545" width="120" height="50" as="geometry" />
        </mxCell>
        <mxCell id="mg9UBordUKbP0jXNHdFR-22" style="edgeStyle=orthogonalEdgeStyle;rounded=0;orthogonalLoop=1;jettySize=auto;html=1;exitX=0.5;exitY=1;exitDx=0;exitDy=0;entryX=0.5;entryY=0;entryDx=0;entryDy=0;" edge="1" parent="mg9UBordUKbP0jXNHdFR-1" source="mg9UBordUKbP0jXNHdFR-23" target="mg9UBordUKbP0jXNHdFR-27">
          <mxGeometry relative="1" as="geometry" />
        </mxCell>
        <mxCell id="mg9UBordUKbP0jXNHdFR-23" value="model:statistical&#xa;Multiplication&#xa;model-based" style="shape=hexagon;perimeter=hexagonPerimeter2;fillColor=#b0e3e6;strokeColor=#0e8088;" name="model" vertex="1" parent="mg9UBordUKbP0jXNHdFR-1">
          <mxGeometry x="-1312" y="-545" width="120" height="50" as="geometry" />
        </mxCell>
        <mxCell id="fisCLAnOKEw6U1uOdIOh-5" style="edgeStyle=orthogonalEdgeStyle;rounded=0;orthogonalLoop=1;jettySize=auto;html=1;exitX=0.5;exitY=1;exitDx=0;exitDy=0;entryX=0.5;entryY=0;entryDx=0;entryDy=0;" edge="1" parent="mg9UBordUKbP0jXNHdFR-1" source="mg9UBordUKbP0jXNHdFR-24" target="mg9UBordUKbP0jXNHdFR-27">
          <mxGeometry relative="1" as="geometry" />
        </mxCell>
        <mxCell id="mg9UBordUKbP0jXNHdFR-24" value="model:statistical&#xa;CoxPH&#xa;HR-based" style="shape=hexagon;perimeter=hexagonPerimeter2;fillColor=#b0e3e6;strokeColor=#0e8088;" name="model" vertex="1" parent="mg9UBordUKbP0jXNHdFR-1">
          <mxGeometry x="-1112" y="-545" width="120" height="50" as="geometry" />
        </mxCell>
        <mxCell id="fisCLAnOKEw6U1uOdIOh-6" style="edgeStyle=orthogonalEdgeStyle;rounded=0;orthogonalLoop=1;jettySize=auto;html=1;exitX=0.5;exitY=1;exitDx=0;exitDy=0;entryX=0.5;entryY=0;entryDx=0;entryDy=0;" edge="1" parent="mg9UBordUKbP0jXNHdFR-1" source="mg9UBordUKbP0jXNHdFR-25" target="mg9UBordUKbP0jXNHdFR-27">
          <mxGeometry relative="1" as="geometry" />
        </mxCell>
        <mxCell id="mg9UBordUKbP0jXNHdFR-25" value="model:statistical&#xa;Addition&#xa;model-based" style="shape=hexagon;perimeter=hexagonPerimeter2;fillColor=#b0e3e6;strokeColor=#0e8088;" name="model" vertex="1" parent="mg9UBordUKbP0jXNHdFR-1">
          <mxGeometry x="-912" y="-545" width="120" height="50" as="geometry" />
        </mxCell>
        <mxCell id="fisCLAnOKEw6U1uOdIOh-9" style="edgeStyle=orthogonalEdgeStyle;rounded=0;orthogonalLoop=1;jettySize=auto;html=1;exitX=0.5;exitY=1;exitDx=0;exitDy=0;entryX=0.5;entryY=0;entryDx=0;entryDy=0;" edge="1" parent="mg9UBordUKbP0jXNHdFR-1" source="mg9UBordUKbP0jXNHdFR-27" target="mg9UBordUKbP0jXNHdFR-38">
          <mxGeometry relative="1" as="geometry" />
        </mxCell>
        <mxCell id="mg9UBordUKbP0jXNHdFR-27" value="infer:deduce" style="rounded=1;whiteSpace=wrap;html=1;arcSize=50;fillColor=#bac8d3;strokeColor=#23445d;" name="infer:deduce" vertex="1" parent="mg9UBordUKbP0jXNHdFR-1">
          <mxGeometry x="-1002" y="-415" width="100" height="50" as="geometry" />
        </mxCell>
        <mxCell id="mg9UBordUKbP0jXNHdFR-29" style="edgeStyle=orthogonalEdgeStyle;rounded=0;orthogonalLoop=1;jettySize=auto;html=1;entryX=0;entryY=0.5;entryDx=0;entryDy=0;" edge="1" parent="mg9UBordUKbP0jXNHdFR-1" source="mg9UBordUKbP0jXNHdFR-30" target="mg9UBordUKbP0jXNHdFR-27">
          <mxGeometry relative="1" as="geometry" />
        </mxCell>
        <mxCell id="mg9UBordUKbP0jXNHdFR-30" value="data&#xa;Patient&#39;s Genomic&#xa;Data" style="rectangle;fillColor=#fff2cc;strokeColor=#d6b656;" name="data" vertex="1" parent="mg9UBordUKbP0jXNHdFR-1">
          <mxGeometry x="-1412" y="-415" width="100" height="50" as="geometry" />
        </mxCell>
        <mxCell id="fisCLAnOKEw6U1uOdIOh-8" style="edgeStyle=orthogonalEdgeStyle;rounded=0;orthogonalLoop=1;jettySize=auto;html=1;exitX=0;exitY=0.5;exitDx=0;exitDy=0;entryX=1;entryY=0.5;entryDx=0;entryDy=0;" edge="1" parent="mg9UBordUKbP0jXNHdFR-1" source="mg9UBordUKbP0jXNHdFR-31" target="mg9UBordUKbP0jXNHdFR-27">
          <mxGeometry relative="1" as="geometry" />
        </mxCell>
        <mxCell id="mg9UBordUKbP0jXNHdFR-31" value="model:semantic&#xa;Fuzzy Rules" style="shape=hexagon;perimeter=hexagonPerimeter2;fillColor=#b0e3e6;strokeColor=#0e8088;" name="model" vertex="1" parent="mg9UBordUKbP0jXNHdFR-1">
          <mxGeometry x="-592" y="-415" width="120" height="50" as="geometry" />
        </mxCell>
        <mxCell id="mg9UBordUKbP0jXNHdFR-33" value="" style="edgeStyle=orthogonalEdgeStyle;rounded=0;orthogonalLoop=1;jettySize=auto;html=1;" edge="1" parent="mg9UBordUKbP0jXNHdFR-1" source="mg9UBordUKbP0jXNHdFR-34" target="mg9UBordUKbP0jXNHdFR-31">
          <mxGeometry relative="1" as="geometry" />
        </mxCell>
        <mxCell id="mg9UBordUKbP0jXNHdFR-34" value="generate:engineer" style="rounded=1;whiteSpace=wrap;html=1;arcSize=50;fillColor=#e1d5e7;strokeColor=#9673a6;" name="generate:engineer" vertex="1" parent="mg9UBordUKbP0jXNHdFR-1">
          <mxGeometry x="-402" y="-415" width="100" height="50" as="geometry" />
        </mxCell>
        <mxCell id="mg9UBordUKbP0jXNHdFR-35" style="edgeStyle=orthogonalEdgeStyle;rounded=0;orthogonalLoop=1;jettySize=auto;html=1;exitX=0;exitY=0.5;exitDx=0;exitDy=0;entryX=1;entryY=0.5;entryDx=0;entryDy=0;" edge="1" parent="mg9UBordUKbP0jXNHdFR-1" source="mg9UBordUKbP0jXNHdFR-36" target="mg9UBordUKbP0jXNHdFR-34">
          <mxGeometry relative="1" as="geometry" />
        </mxCell>
        <mxCell id="mg9UBordUKbP0jXNHdFR-36" value="actor&#xa;Experts" style="triangle;fillColor=#ffe6cc;strokeColor=#d79b00;" name="actor" vertex="1" parent="mg9UBordUKbP0jXNHdFR-1">
          <mxGeometry x="-222" y="-415" width="100" height="50" as="geometry" />
        </mxCell>
        <mxCell id="mg9UBordUKbP0jXNHdFR-37" style="edgeStyle=orthogonalEdgeStyle;rounded=0;orthogonalLoop=1;jettySize=auto;html=1;exitX=0.5;exitY=1;exitDx=0;exitDy=0;entryX=0.5;entryY=0;entryDx=0;entryDy=0;" edge="1" parent="mg9UBordUKbP0jXNHdFR-1" source="mg9UBordUKbP0jXNHdFR-38" target="mg9UBordUKbP0jXNHdFR-41">
          <mxGeometry relative="1" as="geometry" />
        </mxCell>
        <mxCell id="mg9UBordUKbP0jXNHdFR-38" value="data&#xa;Risk-scores" style="rectangle;fillColor=#fff2cc;strokeColor=#d6b656;" name="data" vertex="1" parent="mg9UBordUKbP0jXNHdFR-1" tooltip="â ï¸ Node not part of any valid pattern.">
          <mxGeometry x="-1002" y="-285" width="100" height="50" as="geometry" />
        </mxCell>
        <mxCell id="mg9UBordUKbP0jXNHdFR-40" style="edgeStyle=orthogonalEdgeStyle;rounded=0;orthogonalLoop=1;jettySize=auto;html=1;exitX=1;exitY=0.5;exitDx=0;exitDy=0;entryX=0;entryY=0.5;entryDx=0;entryDy=0;" edge="1" parent="mg9UBordUKbP0jXNHdFR-1" source="mg9UBordUKbP0jXNHdFR-41" target="mg9UBordUKbP0jXNHdFR-42">
          <mxGeometry relative="1" as="geometry" />
        </mxCell>
        <mxCell id="mg9UBordUKbP0jXNHdFR-41" value="transform" style="rounded=1;whiteSpace=wrap;html=1;arcSize=50;fillColor=#f8cecc;strokeColor=#b85450;" name="transform" vertex="1" parent="mg9UBordUKbP0jXNHdFR-1" tooltip="â ï¸ Node not part of any valid pattern.">
          <mxGeometry x="-1002" y="-155" width="100" height="50" as="geometry" />
        </mxCell>
        <mxCell id="mg9UBordUKbP0jXNHdFR-42" value="symbol&#xa;Clinical&#xa;Implications" style="rectangle;fillColor=#dae8fc;strokeColor=#6c8ebf;" name="symbol" vertex="1" parent="mg9UBordUKbP0jXNHdFR-1" tooltip="â ï¸ Node not part of any valid pattern.">
          <mxGeometry x="-822" y="-155" width="100" height="50" as="geometry" />
        </mxCell>
        <mxCell id="mg9UBordUKbP0jXNHdFR-43" value="error" style="text;html=1;align=center;verticalAlign=middle;whiteSpace=wrap;rounded=0;dashed=1;fillColor=#f8cecc;strokeColor=#b85450;strokeWidth=2;" name="text" vertex="1" parent="mg9UBordUKbP0jXNHdFR-1">
          <mxGeometry x="-887" y="-181.5" width="40" height="30" as="geometry" />
        </mxCell>
      </root>
    </mxGraphModel>
  </diagram>
</mxfile>
